<!DOCTYPE svg PUBLIC "-//W3C//DTD SVG 1.1//EN" "http://www.w3.org/Graphics/SVG/1.1/DTD/svg11.dtd">
<!-- Uploaded to: SVG Repo, www.svgrepo.com, Transformed by: SVG Repo Mixer Tools -->
<svg width="800px" height="800px" viewBox="0 0 24 24" xmlns="http://www.w3.org/2000/svg" fill="#000000">
<g id="SVGRepo_bgCarrier" stroke-width="0"/>
<g id="SVGRepo_tracerCarrier" stroke-linecap="round" stroke-linejoin="round"/>
<g id="SVGRepo_iconCarrier"> <circle fill="#FFC100" cx="19" cy="23" r="1"/> <path fill="#FFC100" d="M24 13c0 2.42-1.72 4.44-4 4.9V20c0 .55-.45 1-1 1s-1-.45-1-1v-3c0-.55.45-1 1-1 1.65 0 3-1.35 3-3s-1.35-3-3-3-3 1.35-3 3c0 .55-.45 1-1 1s-1-.45-1-1c0-2.76 2.24-5 5-5s5 2.24 5 5zM8 7H5c-.553 0-1-.448-1-1s.447-1 1-1h3c.553 0 1 .448 1 1s-.447 1-1 1zM12 10c0 .55-.45 1-1 1H5c-.55 0-1-.45-1-1s.45-1 1-1h6c.55 0 1 .45 1 1zM12 14c0 .55-.45 1-1 1H5c-.55 0-1-.45-1-1s.45-1 1-1h6c.55 0 1 .45 1 1z"/> <path fill="#FFC100" d="M18 2v2.96c0 .55-.45 1-1 1s-1-.45-1-1V2.5c0-.28-.22-.5-.5-.5h-13c-.28 0-.5.22-.5.5v19c0 .28.21.5.49.5H15c.55 0 1 .45 1 1s-.45 1-1 1H2c-1.1 0-2-.9-2-2V2C0 .9.9 0 2 0h14c1.1 0 2 .9 2 2z"/> <path fill="#FFC100" d="M12 18c0 .55-.45 1-1 1H5c-.55 0-1-.45-1-1s.45-1 1-1h6c.55 0 1 .45 1 1z"/> </g>
</svg>